<svg width="22" height="22" viewBox="0 0 22 22" fill="none" xmlns="http://www.w3.org/2000/svg">
<path d="M11 0.34375C5.1147 0.34375 0.34375 5.1147 0.34375 11C0.34375 16.8853 5.1147 21.6562 11 21.6562C16.8853 21.6562 21.6562 16.8853 21.6562 11C21.6562 5.1147 16.8853 0.34375 11 0.34375ZM11 2.40625C15.7494 2.40625 19.5938 6.24985 19.5938 11C19.5938 15.7494 15.7502 19.5938 11 19.5938C6.25058 19.5938 2.40625 15.7502 2.40625 11C2.40625 6.25058 6.24985 2.40625 11 2.40625ZM17.0244 8.00366L16.056 7.0275C15.8555 6.82533 15.529 6.824 15.3269 7.02457L9.25315 13.0495L6.68396 10.4595C6.48343 10.2573 6.15695 10.256 5.95478 10.4565L4.97857 11.4248C4.77641 11.6254 4.77507 11.9518 4.97565 12.1541L8.8764 16.0864C9.07693 16.2886 9.40341 16.2899 9.60558 16.0893L17.0215 8.73288C17.2236 8.5323 17.2249 8.20583 17.0244 8.00366Z" fill="#3D89F4"/>
</svg>
