<svg width="66" height="66" viewBox="0 0 66 66" fill="none" xmlns="http://www.w3.org/2000/svg">
<rect width="66" height="66" rx="20" fill="#72C363"/>
<path d="M47.3334 37.0348C47.3334 37.0348 43.6668 42.4634 43.6668 44.5346C43.6668 46.6059 45.3087 48.2846 47.3334 48.2846C49.358 48.2846 51 46.6059 51 44.5346C51 42.4634 47.3334 37.0348 47.3334 37.0348ZM46.7966 31.0033L34.8978 18.8342C34.7277 18.6599 34.5255 18.5217 34.3031 18.4275C34.0806 18.3333 33.8421 18.2849 33.6013 18.2852C33.1321 18.2852 32.6629 18.468 32.3054 18.8342L27.3102 23.9429L22.0463 18.56C21.6882 18.1938 21.1079 18.1938 20.7498 18.56L20.1024 19.2226C19.7444 19.5888 19.7444 20.1824 20.1024 20.5486L25.3663 25.9321L19.6109 31.8171C17.463 34.0132 17.463 37.5744 19.6109 39.7711L26.3248 46.6375C27.3984 47.7356 28.8061 48.2852 30.2131 48.2852C31.6208 48.2852 33.0278 47.7361 34.1015 46.6375L46.7954 33.6552C47.5121 32.9222 47.5121 31.7357 46.7966 31.0033ZM32.1576 44.6489C31.6385 45.1797 30.9482 45.4721 30.2137 45.4721C29.4792 45.4721 28.7889 45.1797 28.2698 44.6489L21.7415 37.9723H38.6853L32.1576 44.6489ZM41.4359 35.1598H20.8272C20.9417 34.6518 21.1864 34.1831 21.5553 33.8058L27.3102 27.9201L31.3148 32.0157C31.8517 32.5648 32.7219 32.5648 33.2593 32.0157C33.7961 31.4667 33.7961 30.5761 33.2593 30.0271L29.2547 25.9315L33.6013 21.4861L44.203 32.3292L41.4359 35.1598Z" fill="white"/>
</svg>
