<svg width="140" height="24" viewBox="0 0 140 24" fill="none" xmlns="http://www.w3.org/2000/svg">
<path d="M54.4198 12.8338C54.4198 13.8975 54.2845 14.8283 53.9462 15.6925C53.608 16.5568 53.202 17.2881 52.6608 17.8865C52.1196 18.4848 51.4431 18.9502 50.6312 19.2826C49.8194 19.615 48.9399 19.8145 47.9928 19.8145C47.0456 19.8145 46.1662 19.615 45.422 19.2826C44.6101 18.9502 44.0013 18.4848 43.3924 17.8865C42.8512 17.2881 42.3776 16.5568 42.107 15.6925C41.7687 14.8283 41.6334 13.8975 41.6334 12.8338C41.6334 11.7701 41.7687 10.8393 42.107 10.0415C42.4453 9.17725 42.8512 8.44594 43.46 7.8476C44.0013 7.24925 44.6778 6.78388 45.4896 6.45146C46.2338 6.18553 47.0456 5.98608 47.9928 5.98608C48.9399 5.98608 49.8194 6.11905 50.5636 6.45146C51.3754 6.78388 52.0519 7.24925 52.5932 7.8476C53.1344 8.44594 53.608 9.17725 53.8786 10.0415C54.2168 10.9058 54.4198 11.8366 54.4198 12.8338ZM51.2401 12.8338C51.2401 11.5041 50.9695 10.5069 50.3606 9.77559C49.8194 9.04428 49.0076 8.64539 47.9928 8.64539C46.978 8.64539 46.1662 9.04428 45.6249 9.77559C45.0837 10.5069 44.7454 11.5706 44.7454 12.8338C44.7454 14.1634 45.0161 15.1607 45.6249 15.9585C46.1662 16.7563 46.978 17.0887 47.9928 17.0887C49.0076 17.0887 49.8194 16.6898 50.3606 15.9585C50.9695 15.2272 51.2401 14.1634 51.2401 12.8338Z" fill="white"/>
<path d="M68.8995 12.897C68.8995 13.8943 68.7642 14.825 68.4936 15.6228C68.2229 16.4871 67.8847 17.1519 67.3435 17.7503C66.8699 18.3486 66.261 18.814 65.5168 19.1464C64.7726 19.4788 63.9608 19.6782 63.0137 19.6782C62.4048 19.6782 61.7959 19.6118 61.2547 19.4788C60.7135 19.3458 60.3076 19.1464 59.9693 18.9469V22.7364L56.9249 23.9996V6.71414C57.5338 6.51469 58.3456 6.38173 59.2251 6.24876C60.1723 6.1158 61.1194 6.04932 62.1342 6.04932C63.2166 6.04932 64.0961 6.18228 64.9756 6.51469C65.7874 6.84711 66.5316 7.31249 67.0728 7.91083C67.6817 8.50917 68.0876 9.24048 68.4259 10.0383C68.7642 10.9025 68.8995 11.8333 68.8995 12.897ZM65.7874 12.9635C65.7874 11.6339 65.4492 10.5701 64.8403 9.83882C64.2314 9.10752 63.2166 8.70862 61.8636 8.70862C61.593 8.70862 61.2547 8.70862 60.9841 8.7751C60.6458 8.7751 60.3752 8.84158 60.037 8.90807V16.3541C60.3076 16.5536 60.6458 16.6865 61.1194 16.886C61.593 17.0189 62.0665 17.1519 62.5401 17.1519C63.6902 17.1519 64.502 16.753 64.9756 16.0217C65.5168 15.2239 65.7874 14.2267 65.7874 12.9635Z" fill="white"/>
<path d="M70.7251 12.9617C70.7251 11.8315 70.9281 10.8343 71.2663 9.90351C71.6046 9.03923 72.0782 8.30792 72.6871 7.70958C73.2959 7.11124 73.9048 6.71234 74.649 6.37993C75.3932 6.114 76.1373 5.91455 76.9492 5.91455C78.7758 5.91455 80.1965 6.44641 81.2113 7.57662C82.2261 8.70682 82.7673 10.3689 82.7673 12.5628C82.7673 12.7623 82.7673 12.8952 82.7673 13.0947C82.7673 13.2941 82.7673 13.4936 82.6997 13.6265H73.9048C73.9725 14.6903 74.3784 15.488 75.0549 16.0864C75.7314 16.6847 76.6786 16.9507 77.964 16.9507C78.7082 16.9507 79.3847 16.8842 79.9936 16.7512C80.6024 16.6183 81.076 16.4853 81.4819 16.3523L81.8878 18.8122C81.6849 18.8787 81.4819 19.0116 81.2113 19.0781C80.9407 19.1446 80.6024 19.2776 80.1965 19.344C79.7906 19.4105 79.3847 19.477 78.9788 19.5435C78.5052 19.61 78.0993 19.61 77.6257 19.61C76.4756 19.61 75.4608 19.4105 74.5813 19.0781C73.7018 18.7457 73.0253 18.2803 72.4164 17.682C71.8752 17.0836 71.4693 16.3523 71.1987 15.5545C70.8604 14.8232 70.7251 13.8925 70.7251 12.9617ZM79.6553 11.5656C79.6553 11.1667 79.5876 10.7678 79.4523 10.3689C79.317 9.96999 79.1817 9.63758 78.9111 9.37165C78.7082 9.10572 78.3699 8.90627 78.0993 8.70682C77.761 8.57386 77.3551 8.44089 76.9492 8.44089C76.4756 8.44089 76.0697 8.50737 75.7314 8.70682C75.3932 8.90627 75.0549 9.10572 74.8519 9.37165C74.5813 9.63758 74.446 9.96999 74.3107 10.3689C74.1754 10.7678 74.1078 11.1002 74.0401 11.4991H79.6553V11.5656Z" fill="white"/>
<path d="M85.4091 6.78153C86.018 6.58208 86.7621 6.44911 87.7093 6.31615C88.6564 6.18318 89.7389 6.1167 90.889 6.1167C91.9714 6.1167 92.8509 6.24966 93.5951 6.58208C94.3392 6.84801 94.8805 7.31339 95.354 7.77876C95.76 8.31062 96.0982 8.90897 96.3012 9.70676C96.5041 10.4381 96.5718 11.2359 96.5718 12.1666V19.5462H93.4598V12.499C93.4598 11.7677 93.3921 11.2359 93.3245 10.704C93.2568 10.2386 93.0539 9.83973 92.8509 9.50731C92.6479 9.1749 92.3773 8.97545 91.9714 8.84249C91.6331 8.70952 91.1596 8.64304 90.6183 8.64304C90.2124 8.64304 89.8065 8.64304 89.4006 8.70952C88.9947 8.776 88.6564 8.776 88.4535 8.84249V19.4132H85.3414V6.78153H85.4091Z" fill="white"/>
<path d="M99.6128 19.4129V1.5291L102.725 0V6.44881C103.063 6.31585 103.469 6.24937 103.875 6.1164C104.348 6.04992 104.754 5.98343 105.228 5.98343C106.31 5.98343 107.19 6.1164 107.866 6.44881C108.543 6.71474 109.152 7.18012 109.558 7.6455C109.964 8.17736 110.302 8.7757 110.437 9.50701C110.64 10.2383 110.708 11.0361 110.708 11.9669V19.3464H107.596V12.4987C107.596 11.7674 107.528 11.2356 107.461 10.7037C107.393 10.2383 107.19 9.83943 106.987 9.50701C106.784 9.1746 106.513 8.97515 106.107 8.84219C105.769 8.70922 105.296 8.64274 104.754 8.64274C104.348 8.64274 103.943 8.70922 103.537 8.7757C103.131 8.84219 102.792 8.90867 102.59 8.97515V19.4129H99.6128Z" fill="white"/>
<path d="M124.71 19.0124C124.101 19.1454 123.357 19.3448 122.41 19.4778C121.463 19.6107 120.448 19.7437 119.298 19.7437C118.215 19.7437 117.336 19.6107 116.592 19.2783C115.847 18.9459 115.306 18.547 114.833 18.0151C114.427 17.4833 114.088 16.8185 113.886 16.0872C113.683 15.3558 113.615 14.5581 113.615 13.6273V6.31421H116.727V13.1619C116.727 14.5581 116.93 15.5553 117.336 16.1536C117.742 16.752 118.486 17.0844 119.501 17.0844C119.907 17.0844 120.245 17.0844 120.651 17.0179C121.057 17.0179 121.395 16.9514 121.598 16.8849V6.31421H124.71V19.0124Z" fill="white"/>
<path d="M140 12.8976C140 13.9613 139.864 14.8921 139.526 15.7564C139.188 16.6207 138.782 17.352 138.173 17.9503C137.564 18.5486 136.888 19.014 136.076 19.3464C135.264 19.6789 134.317 19.8118 133.234 19.8118C132.22 19.8118 131.272 19.7453 130.325 19.6124C129.378 19.4794 128.634 19.28 128.025 19.0805V1.5291L131.137 0V6.78123C131.475 6.58178 131.949 6.44881 132.423 6.24936C132.964 6.1164 133.505 6.04992 134.114 6.04992C135.061 6.04992 135.873 6.18288 136.617 6.5153C137.361 6.84771 137.97 7.31309 138.444 7.91143C138.917 8.50977 139.323 9.24108 139.594 10.1054C139.864 10.9031 140 11.8339 140 12.8976ZM136.82 12.8311C136.82 11.568 136.549 10.5043 136.076 9.77294C135.535 9.04163 134.723 8.64274 133.64 8.64274C133.099 8.64274 132.625 8.70922 132.22 8.84219C131.746 8.97515 131.408 9.1746 131.137 9.37405V16.8866C131.34 16.9531 131.611 16.9531 132.017 17.0195C132.355 17.086 132.761 17.086 133.302 17.086C134.452 17.086 135.332 16.6871 136.008 15.9558C136.482 15.2245 136.82 14.1608 136.82 12.8311Z" fill="white"/>
<path d="M9.47139 2.79321C4.19447 2.79321 0 6.98162 0 12.1008C0 17.2199 4.26213 21.4083 9.47139 21.4083C14.6807 21.4083 18.9428 17.2199 18.9428 12.1008C18.9428 6.98162 14.7483 2.79321 9.47139 2.79321ZM14.6807 10.2393L7.84772 16.954C7.71242 17.087 7.50946 17.087 7.44181 16.954L4.32978 13.9623C4.19447 13.8293 4.19447 13.6299 4.32978 13.5634L5.20926 12.6326C5.34457 12.4997 5.54753 12.4997 5.61518 12.6326L7.37415 14.3612C7.50946 14.4942 7.71242 14.4942 7.78007 14.3612L13.3276 8.90961C13.4629 8.77665 13.6659 8.77665 13.7335 8.90961L14.613 9.77389C14.816 9.90685 14.816 10.1063 14.6807 10.2393Z" fill="white"/>
<path opacity="0.7" d="M33.7582 8.37351H29.6313C28.143 5.24882 25.031 2.98841 21.3777 2.78897C20.0923 2.72248 18.8746 2.92193 17.7245 3.32083C17.3862 3.45379 17.2509 3.91917 17.5215 4.1851C19.6187 6.24606 20.9041 9.03833 20.9041 12.163C20.9041 15.2877 19.6187 18.08 17.5215 20.1409C17.2509 20.4069 17.3185 20.8722 17.7245 21.0052C18.7392 21.3376 19.8217 21.5371 20.9041 21.5371C24.4221 21.5371 27.4665 19.6755 29.0901 16.8833H30.8491C31.6609 16.8833 32.2698 16.2849 32.2698 15.4871C32.2698 14.6894 31.6609 14.091 30.8491 14.091H30.1726H27.0605C26.2487 14.091 25.6398 13.4927 25.6398 12.6949C25.6398 11.8971 26.2487 11.2987 27.0605 11.2987H30.3079H32.7434H33.6905C34.5023 11.2987 35.1112 10.7004 35.1112 9.9026C35.1112 9.10481 34.5023 8.37351 33.7582 8.37351Z" fill="white"/>
</svg>
