<svg width="21" height="21" viewBox="0 0 21 21" fill="none" xmlns="http://www.w3.org/2000/svg">
<path d="M21 2.15983V17.9986C21 19.191 19.9922 20.1584 18.75 20.1584H14.7516V12.1851H17.5922L18 9.1433H14.7516V7.19945C14.7516 6.31751 15.0047 5.71906 16.3219 5.71906H18V3.00127C17.7094 2.96527 16.7156 2.87978 15.5531 2.87978C13.1344 2.87978 11.475 4.29717 11.475 6.90247V9.1478H8.625V12.1896H11.4797V20.1584H2.25C1.00781 20.1584 0 19.191 0 17.9986V2.15983C0 0.967426 1.00781 0 2.25 0H18.75C19.9922 0 21 0.967426 21 2.15983Z" fill="#5A657A"/>
</svg>
