<svg width="21" height="21" viewBox="0 0 21 21" fill="none" xmlns="http://www.w3.org/2000/svg">
<path d="M18.75 0.388672H2.25C1.00781 0.388672 0 1.36423 0 2.56666V18.5385C0 19.741 1.00781 20.7165 2.25 20.7165H18.75C19.9922 20.7165 21 19.741 21 18.5385V2.56666C21 1.36423 19.9922 0.388672 18.75 0.388672ZM16.4578 7.59417C16.4672 7.72122 16.4672 7.8528 16.4672 7.97985C16.4672 11.9138 13.3734 16.4468 7.72031 16.4468C5.97656 16.4468 4.35938 15.9567 3 15.1127C3.24844 15.14 3.4875 15.149 3.74063 15.149C5.17969 15.149 6.50156 14.6772 7.55625 13.8786C6.20625 13.8513 5.07187 12.9938 4.68281 11.814C5.15625 11.8821 5.58281 11.8821 6.07031 11.7596C4.66406 11.4828 3.60937 10.2849 3.60937 8.83743V8.80113C4.01719 9.02347 4.49531 9.15959 4.99687 9.17774C4.5752 8.90624 4.22952 8.5379 3.99069 8.10561C3.75186 7.67332 3.6273 7.19052 3.62812 6.70029C3.62812 6.14672 3.77812 5.63852 4.04531 5.19839C5.55937 7.0043 7.83281 8.18404 10.3828 8.31109C9.94687 6.29191 11.5078 4.65389 13.3828 4.65389C14.2687 4.65389 15.0656 5.01235 15.6281 5.59314C16.3219 5.4661 16.9875 5.21654 17.5781 4.87622C17.3484 5.56592 16.8656 6.14672 16.2281 6.51425C16.8469 6.45073 17.4469 6.28284 18 6.05143C17.5828 6.64584 17.0578 7.17218 16.4578 7.59417Z" fill="#5A657A"/>
</svg>
