<svg width="33" height="31" viewBox="0 0 33 31" fill="none" xmlns="http://www.w3.org/2000/svg">
<path d="M29.3334 19.0348C29.3334 19.0348 25.6668 24.4634 25.6668 26.5346C25.6668 28.6059 27.3087 30.2846 29.3334 30.2846C31.358 30.2846 33 28.6059 33 26.5346C33 24.4634 29.3334 19.0348 29.3334 19.0348ZM28.7966 13.0033L16.8978 0.83417C16.7277 0.659917 16.5255 0.521724 16.3031 0.427513C16.0806 0.333302 15.8421 0.284926 15.6013 0.285157C15.1321 0.285157 14.6629 0.467966 14.3054 0.83417L9.3102 5.94286L4.04631 0.559956C3.68825 0.193753 3.10789 0.193753 2.74982 0.559956L2.10243 1.22264C1.74437 1.58884 1.74437 2.18239 2.10243 2.54859L7.36632 7.93208L1.61088 13.8171C-0.536959 16.0132 -0.536959 19.5744 1.61088 21.7711L8.3248 28.6375C9.39843 29.7356 10.8061 30.2852 12.2131 30.2852C13.6208 30.2852 15.0278 29.7361 16.1015 28.6375L28.7954 15.6552C29.5121 14.9222 29.5121 13.7357 28.7966 13.0033ZM14.1576 26.6489C13.6385 27.1797 12.9482 27.4721 12.2137 27.4721C11.4792 27.4721 10.7889 27.1797 10.2698 26.6489L3.74153 19.9723H20.6853L14.1576 26.6489ZM23.4359 17.1598H2.82716C2.94175 16.6518 3.18638 16.1831 3.55533 15.8058L9.3102 9.92013L13.3148 14.0157C13.8517 14.5648 14.7219 14.5648 15.2593 14.0157C15.7961 13.4667 15.7961 12.5761 15.2593 12.0271L11.2547 7.93149L15.6013 3.48607L26.203 14.3292L23.4359 17.1598Z" fill="white"/>
</svg>
