<svg width="30" height="24" viewBox="0 0 30 24" fill="none" xmlns="http://www.w3.org/2000/svg">
<path d="M27.1111 14.9997C27.1111 14.9997 24.2223 19.3426 24.2223 20.9996C24.2223 22.6566 25.516 23.9995 27.1111 23.9995C28.7063 23.9995 30 22.6566 30 20.9996C30 19.3426 27.1111 14.9997 27.1111 14.9997ZM26.6882 10.1745L17.3134 0.439211C17.1794 0.299809 17.0201 0.189254 16.8448 0.113885C16.6696 0.0385166 16.4817 -0.000184477 16.2919 6.61112e-07C15.9223 6.61112e-07 15.5526 0.146248 15.2709 0.439211L11.3353 4.52616L7.18801 0.21984C6.90589 -0.0731229 6.44864 -0.0731229 6.16653 0.21984L5.65646 0.749986C5.37435 1.04295 5.37435 1.51778 5.65646 1.81075L9.80377 6.11754L5.26918 10.8256C3.57694 12.5824 3.57694 15.4314 5.26918 17.1887L10.5589 22.6819C11.4048 23.5603 12.5139 24 13.6225 24C14.7315 24 15.8401 23.5608 16.686 22.6819L26.6873 12.296C27.252 11.7096 27.252 10.7604 26.6882 10.1745ZM15.1545 21.091C14.7455 21.5157 14.2016 21.7496 13.6229 21.7496C13.0442 21.7496 12.5003 21.5157 12.0914 21.091L6.94787 15.7497H20.2975L15.1545 21.091ZM22.4646 13.4997H6.22746C6.31774 13.0933 6.51048 12.7183 6.80117 12.4165L11.3353 7.70797L14.4905 10.9845C14.9134 11.4237 15.5991 11.4237 16.0225 10.9845C16.4454 10.5453 16.4454 9.83278 16.0225 9.39357L12.8673 6.11707L16.2919 2.56073L24.6448 11.2352L22.4646 13.4997Z" fill="#3D89F4"/>
<path opacity="0.3" d="M18.1716 7.28478L14.7152 3.82843C13.1531 2.26633 10.6205 2.26633 9.05836 3.82843L2.82843 10.0584C1.26633 11.6205 1.26633 14.1531 2.82843 15.7152L6.28478 19.1716C7.84688 20.7337 10.3795 20.7337 11.9416 19.1716L18.1716 12.9416C19.7337 11.3795 19.7337 8.84688 18.1716 7.28478Z" fill="#3D89F4"/>
</svg>
